<mxfile host="Electron" modified="2024-05-03T14:11:23.992Z" agent="Mozilla/5.0 (Windows NT 10.0; Win64; x64) AppleWebKit/537.36 (KHTML, like Gecko) draw.io/24.2.5 Chrome/120.0.6099.109 Electron/28.1.0 Safari/537.36" etag="nSETeMp2UJRMI6DbBiDd" version="24.2.5" type="device">
  <diagram name="Pahina-1" id="JFdVvVkIcvo0s8WUfYqc">
    <mxGraphModel dx="677" dy="490" grid="1" gridSize="10" guides="1" tooltips="1" connect="1" arrows="1" fold="1" page="1" pageScale="1" pageWidth="827" pageHeight="1169" math="0" shadow="0">
      <root>
        <mxCell id="0" />
        <mxCell id="1" parent="0" />
        <mxCell id="MTxiO8yXiQW8oHu7920h-1" value="&lt;font style=&quot;font-size: 15px;&quot;&gt;Memory&lt;/font&gt;" style="rounded=0;whiteSpace=wrap;html=1;verticalAlign=top;align=left;" parent="1" vertex="1">
          <mxGeometry x="110" y="150" width="360" height="345" as="geometry" />
        </mxCell>
        <mxCell id="MTxiO8yXiQW8oHu7920h-4" value="&lt;font style=&quot;font-size: 15px;&quot;&gt;Disk&lt;/font&gt;" style="rounded=0;whiteSpace=wrap;html=1;verticalAlign=top;align=left;" parent="1" vertex="1">
          <mxGeometry x="110" y="495" width="360" height="85" as="geometry" />
        </mxCell>
        <mxCell id="MTxiO8yXiQW8oHu7920h-15" style="edgeStyle=orthogonalEdgeStyle;rounded=0;orthogonalLoop=1;jettySize=auto;html=1;exitX=0.5;exitY=1;exitDx=0;exitDy=0;startArrow=classic;startFill=1;" parent="1" source="MTxiO8yXiQW8oHu7920h-6" target="MTxiO8yXiQW8oHu7920h-7" edge="1">
          <mxGeometry relative="1" as="geometry" />
        </mxCell>
        <mxCell id="MTxiO8yXiQW8oHu7920h-6" value="Character Pool" style="rounded=1;whiteSpace=wrap;html=1;" parent="1" vertex="1">
          <mxGeometry x="135" y="250" width="310" height="40" as="geometry" />
        </mxCell>
        <mxCell id="MTxiO8yXiQW8oHu7920h-7" value="B+Tree" style="rounded=1;whiteSpace=wrap;html=1;verticalAlign=top;" parent="1" vertex="1">
          <mxGeometry x="135" y="320" width="310" height="90" as="geometry" />
        </mxCell>
        <mxCell id="MTxiO8yXiQW8oHu7920h-8" value="Internal Node" style="rounded=1;whiteSpace=wrap;html=1;" parent="1" vertex="1">
          <mxGeometry x="170" y="347.5" width="110" height="40" as="geometry" />
        </mxCell>
        <mxCell id="MTxiO8yXiQW8oHu7920h-9" value="Leaf Node" style="rounded=1;whiteSpace=wrap;html=1;" parent="1" vertex="1">
          <mxGeometry x="304" y="347.5" width="110" height="40" as="geometry" />
        </mxCell>
        <mxCell id="MTxiO8yXiQW8oHu7920h-10" value="Page Cache" style="rounded=1;whiteSpace=wrap;html=1;" parent="1" vertex="1">
          <mxGeometry x="240" y="440" width="202.5" height="40" as="geometry" />
        </mxCell>
        <mxCell id="MTxiO8yXiQW8oHu7920h-12" value="Customed File" style="rounded=1;whiteSpace=wrap;html=1;" parent="1" vertex="1">
          <mxGeometry x="139.75" y="530" width="302.5" height="40" as="geometry" />
        </mxCell>
        <mxCell id="MTxiO8yXiQW8oHu7920h-17" style="edgeStyle=orthogonalEdgeStyle;rounded=0;orthogonalLoop=1;jettySize=auto;html=1;exitX=0.5;exitY=1;exitDx=0;exitDy=0;startArrow=classic;startFill=1;" parent="1" source="MTxiO8yXiQW8oHu7920h-16" target="MTxiO8yXiQW8oHu7920h-6" edge="1">
          <mxGeometry relative="1" as="geometry" />
        </mxCell>
        <mxCell id="MTxiO8yXiQW8oHu7920h-16" value="User Options" style="rounded=1;whiteSpace=wrap;html=1;" parent="1" vertex="1">
          <mxGeometry x="135" y="180" width="310" height="40" as="geometry" />
        </mxCell>
        <mxCell id="2m12YaQJ5ZgbdbR_QPMk-4" value="" style="endArrow=classic;html=1;rounded=0;" edge="1" parent="1">
          <mxGeometry width="50" height="50" relative="1" as="geometry">
            <mxPoint x="298.66" y="440" as="sourcePoint" />
            <mxPoint x="298.66" y="410" as="targetPoint" />
            <Array as="points" />
          </mxGeometry>
        </mxCell>
        <mxCell id="2m12YaQJ5ZgbdbR_QPMk-11" style="edgeStyle=orthogonalEdgeStyle;rounded=0;orthogonalLoop=1;jettySize=auto;html=1;exitX=0.25;exitY=1;exitDx=0;exitDy=0;endArrow=none;endFill=0;startArrow=classic;startFill=1;" edge="1" parent="1" source="MTxiO8yXiQW8oHu7920h-7">
          <mxGeometry relative="1" as="geometry">
            <mxPoint x="212" y="530" as="targetPoint" />
          </mxGeometry>
        </mxCell>
        <mxCell id="2m12YaQJ5ZgbdbR_QPMk-12" value="" style="endArrow=none;html=1;rounded=0;startArrow=classic;startFill=1;endFill=0;" edge="1" parent="1">
          <mxGeometry width="50" height="50" relative="1" as="geometry">
            <mxPoint x="372.66" y="440" as="sourcePoint" />
            <mxPoint x="372.66" y="410" as="targetPoint" />
            <Array as="points" />
          </mxGeometry>
        </mxCell>
        <mxCell id="2m12YaQJ5ZgbdbR_QPMk-16" value="" style="endArrow=classic;html=1;rounded=0;" edge="1" parent="1">
          <mxGeometry width="50" height="50" relative="1" as="geometry">
            <mxPoint x="341" y="480" as="sourcePoint" />
            <mxPoint x="341" y="530" as="targetPoint" />
          </mxGeometry>
        </mxCell>
        <mxCell id="2m12YaQJ5ZgbdbR_QPMk-17" value="" style="endArrow=none;html=1;rounded=0;startArrow=classic;startFill=1;endFill=0;" edge="1" parent="1">
          <mxGeometry width="50" height="50" relative="1" as="geometry">
            <mxPoint x="267" y="481" as="sourcePoint" />
            <mxPoint x="267" y="531" as="targetPoint" />
          </mxGeometry>
        </mxCell>
      </root>
    </mxGraphModel>
  </diagram>
</mxfile>
